<mxfile host="app.diagrams.net" modified="2023-11-03T16:12:24.571Z" agent="Mozilla/5.0 (Windows NT 10.0; Win64; x64) AppleWebKit/537.36 (KHTML, like Gecko) Chrome/118.0.0.0 Safari/537.36" etag="gwHwRMIDKnHzeuj0LFfB" version="22.0.8" type="github">
  <diagram name="Page-1" id="13e1069c-82ec-6db2-03f1-153e76fe0fe0">
    <mxGraphModel dx="1543" dy="915" grid="1" gridSize="10" guides="1" tooltips="1" connect="1" arrows="1" fold="1" page="1" pageScale="1" pageWidth="1100" pageHeight="850" background="none" math="0" shadow="0">
      <root>
        <mxCell id="0" />
        <mxCell id="1" parent="0" />
        <mxCell id="UPOzVNnAeJFUdocjCnjo-26" value="" style="rounded=1;whiteSpace=wrap;html=1;fontSize=16;dashed=1;dashPattern=8 8;movable=0;resizable=0;rotatable=0;deletable=0;editable=0;locked=1;connectable=0;" vertex="1" parent="1">
          <mxGeometry x="300" y="20" width="370" height="780" as="geometry" />
        </mxCell>
        <mxCell id="UPOzVNnAeJFUdocjCnjo-3" value="Student" style="shape=umlActor;verticalLabelPosition=bottom;verticalAlign=top;html=1;outlineConnect=0;fontSize=16;" vertex="1" parent="1">
          <mxGeometry x="130" y="200" width="30" height="60" as="geometry" />
        </mxCell>
        <mxCell id="UPOzVNnAeJFUdocjCnjo-4" value="Generate Digital ID" style="ellipse;whiteSpace=wrap;html=1;fontSize=16;" vertex="1" parent="1">
          <mxGeometry x="400" y="240" width="170" height="80" as="geometry" />
        </mxCell>
        <mxCell id="UPOzVNnAeJFUdocjCnjo-5" value="Verify Digital ID" style="ellipse;whiteSpace=wrap;html=1;fontSize=16;" vertex="1" parent="1">
          <mxGeometry x="360" y="331" width="170" height="80" as="geometry" />
        </mxCell>
        <mxCell id="UPOzVNnAeJFUdocjCnjo-6" value="Update Personal Information" style="ellipse;whiteSpace=wrap;html=1;fontSize=16;" vertex="1" parent="1">
          <mxGeometry x="390" y="140" width="170" height="80" as="geometry" />
        </mxCell>
        <mxCell id="UPOzVNnAeJFUdocjCnjo-7" value="Manage Digital ID" style="ellipse;whiteSpace=wrap;html=1;fontSize=16;" vertex="1" parent="1">
          <mxGeometry x="390" y="40" width="170" height="80" as="geometry" />
        </mxCell>
        <mxCell id="UPOzVNnAeJFUdocjCnjo-8" value="Facial Recognition" style="ellipse;whiteSpace=wrap;html=1;fontSize=16;" vertex="1" parent="1">
          <mxGeometry x="465" y="449" width="170" height="80" as="geometry" />
        </mxCell>
        <mxCell id="UPOzVNnAeJFUdocjCnjo-9" value="Security Audit" style="ellipse;whiteSpace=wrap;html=1;fontSize=16;" vertex="1" parent="1">
          <mxGeometry x="440" y="650" width="170" height="80" as="geometry" />
        </mxCell>
        <mxCell id="UPOzVNnAeJFUdocjCnjo-10" value="Authentication" style="ellipse;whiteSpace=wrap;html=1;fontSize=16;" vertex="1" parent="1">
          <mxGeometry x="340" y="529" width="170" height="80" as="geometry" />
        </mxCell>
        <mxCell id="UPOzVNnAeJFUdocjCnjo-11" value="Administrator" style="shape=umlActor;verticalLabelPosition=bottom;verticalAlign=top;html=1;outlineConnect=0;fontSize=16;" vertex="1" parent="1">
          <mxGeometry x="790" y="341" width="30" height="60" as="geometry" />
        </mxCell>
        <mxCell id="UPOzVNnAeJFUdocjCnjo-13" value="" style="endArrow=none;html=1;rounded=0;fontSize=12;startSize=8;endSize=8;curved=1;entryX=0;entryY=0.5;entryDx=0;entryDy=0;" edge="1" parent="1" target="UPOzVNnAeJFUdocjCnjo-4">
          <mxGeometry width="50" height="50" relative="1" as="geometry">
            <mxPoint x="160" y="220" as="sourcePoint" />
            <mxPoint x="360" y="310" as="targetPoint" />
          </mxGeometry>
        </mxCell>
        <mxCell id="UPOzVNnAeJFUdocjCnjo-14" value="" style="endArrow=none;html=1;rounded=0;fontSize=12;startSize=8;endSize=8;curved=1;exitX=1.012;exitY=0.704;exitDx=0;exitDy=0;exitPerimeter=0;" edge="1" parent="1" source="UPOzVNnAeJFUdocjCnjo-4">
          <mxGeometry width="50" height="50" relative="1" as="geometry">
            <mxPoint x="380" y="490" as="sourcePoint" />
            <mxPoint x="790" y="360" as="targetPoint" />
          </mxGeometry>
        </mxCell>
        <mxCell id="UPOzVNnAeJFUdocjCnjo-17" value="" style="endArrow=none;html=1;rounded=0;fontSize=12;startSize=8;endSize=8;curved=1;entryX=0;entryY=0;entryDx=0;entryDy=0;" edge="1" parent="1" target="UPOzVNnAeJFUdocjCnjo-5">
          <mxGeometry width="50" height="50" relative="1" as="geometry">
            <mxPoint x="160" y="220" as="sourcePoint" />
            <mxPoint x="370" y="340" as="targetPoint" />
          </mxGeometry>
        </mxCell>
        <mxCell id="UPOzVNnAeJFUdocjCnjo-18" value="" style="endArrow=none;html=1;rounded=0;fontSize=12;startSize=8;endSize=8;curved=1;entryX=0;entryY=0.5;entryDx=0;entryDy=0;exitX=1;exitY=0.3333333333333333;exitDx=0;exitDy=0;exitPerimeter=0;" edge="1" parent="1" source="UPOzVNnAeJFUdocjCnjo-3" target="UPOzVNnAeJFUdocjCnjo-6">
          <mxGeometry width="50" height="50" relative="1" as="geometry">
            <mxPoint x="160" y="220" as="sourcePoint" />
            <mxPoint x="410" y="188" as="targetPoint" />
          </mxGeometry>
        </mxCell>
        <mxCell id="UPOzVNnAeJFUdocjCnjo-19" value="" style="endArrow=none;html=1;rounded=0;fontSize=12;startSize=8;endSize=8;curved=1;entryX=0;entryY=0.5;entryDx=0;entryDy=0;exitX=1;exitY=0.3333333333333333;exitDx=0;exitDy=0;exitPerimeter=0;" edge="1" parent="1" source="UPOzVNnAeJFUdocjCnjo-3" target="UPOzVNnAeJFUdocjCnjo-8">
          <mxGeometry width="50" height="50" relative="1" as="geometry">
            <mxPoint x="190" y="240" as="sourcePoint" />
            <mxPoint x="420" y="198" as="targetPoint" />
          </mxGeometry>
        </mxCell>
        <mxCell id="UPOzVNnAeJFUdocjCnjo-20" value="" style="endArrow=none;html=1;rounded=0;fontSize=12;startSize=8;endSize=8;curved=1;exitX=1;exitY=0.3333333333333333;exitDx=0;exitDy=0;exitPerimeter=0;entryX=0;entryY=0.5;entryDx=0;entryDy=0;" edge="1" parent="1" source="UPOzVNnAeJFUdocjCnjo-3" target="UPOzVNnAeJFUdocjCnjo-10">
          <mxGeometry width="50" height="50" relative="1" as="geometry">
            <mxPoint x="340" y="490" as="sourcePoint" />
            <mxPoint x="390" y="440" as="targetPoint" />
          </mxGeometry>
        </mxCell>
        <mxCell id="UPOzVNnAeJFUdocjCnjo-23" value="" style="endArrow=none;html=1;rounded=0;fontSize=12;startSize=8;endSize=8;curved=1;exitX=1;exitY=0.5;exitDx=0;exitDy=0;" edge="1" parent="1" source="UPOzVNnAeJFUdocjCnjo-6">
          <mxGeometry width="50" height="50" relative="1" as="geometry">
            <mxPoint x="590" y="370" as="sourcePoint" />
            <mxPoint x="790" y="360" as="targetPoint" />
          </mxGeometry>
        </mxCell>
        <mxCell id="UPOzVNnAeJFUdocjCnjo-24" value="" style="endArrow=none;html=1;rounded=0;fontSize=12;startSize=8;endSize=8;curved=1;exitX=1;exitY=0.5;exitDx=0;exitDy=0;entryX=0;entryY=0.3333333333333333;entryDx=0;entryDy=0;entryPerimeter=0;" edge="1" parent="1" source="UPOzVNnAeJFUdocjCnjo-7" target="UPOzVNnAeJFUdocjCnjo-11">
          <mxGeometry width="50" height="50" relative="1" as="geometry">
            <mxPoint x="590" y="370" as="sourcePoint" />
            <mxPoint x="640" y="320" as="targetPoint" />
          </mxGeometry>
        </mxCell>
        <mxCell id="UPOzVNnAeJFUdocjCnjo-25" value="" style="endArrow=none;html=1;rounded=0;fontSize=12;startSize=8;endSize=8;curved=1;exitX=1;exitY=0.5;exitDx=0;exitDy=0;entryX=0;entryY=0.3333333333333333;entryDx=0;entryDy=0;entryPerimeter=0;" edge="1" parent="1" source="UPOzVNnAeJFUdocjCnjo-9" target="UPOzVNnAeJFUdocjCnjo-11">
          <mxGeometry width="50" height="50" relative="1" as="geometry">
            <mxPoint x="590" y="510" as="sourcePoint" />
            <mxPoint x="640" y="460" as="targetPoint" />
          </mxGeometry>
        </mxCell>
        <mxCell id="UPOzVNnAeJFUdocjCnjo-27" value="" style="endArrow=classic;html=1;rounded=0;fontSize=12;startSize=8;endSize=8;curved=1;exitX=1;exitY=1;exitDx=0;exitDy=0;entryX=0.618;entryY=0.138;entryDx=0;entryDy=0;entryPerimeter=0;" edge="1" parent="1" source="UPOzVNnAeJFUdocjCnjo-4" target="UPOzVNnAeJFUdocjCnjo-8">
          <mxGeometry relative="1" as="geometry">
            <mxPoint x="490" y="420" as="sourcePoint" />
            <mxPoint x="600" y="350" as="targetPoint" />
          </mxGeometry>
        </mxCell>
        <mxCell id="UPOzVNnAeJFUdocjCnjo-28" value="&lt;font style=&quot;font-size: 10px;&quot;&gt;&amp;lt;&amp;lt;include&amp;gt;&amp;gt;&lt;/font&gt;" style="edgeLabel;resizable=0;html=1;align=center;verticalAlign=middle;fontSize=16;" connectable="0" vertex="1" parent="UPOzVNnAeJFUdocjCnjo-27">
          <mxGeometry relative="1" as="geometry" />
        </mxCell>
        <mxCell id="UPOzVNnAeJFUdocjCnjo-29" value="" style="endArrow=classic;html=1;rounded=0;fontSize=12;startSize=8;endSize=8;curved=1;" edge="1" parent="1" source="UPOzVNnAeJFUdocjCnjo-5" target="UPOzVNnAeJFUdocjCnjo-8">
          <mxGeometry relative="1" as="geometry">
            <mxPoint x="410" y="430" as="sourcePoint" />
            <mxPoint x="510" y="430" as="targetPoint" />
          </mxGeometry>
        </mxCell>
        <mxCell id="UPOzVNnAeJFUdocjCnjo-30" value="&lt;font style=&quot;font-size: 10px;&quot;&gt;&amp;lt;&amp;lt;extend&amp;gt;&amp;gt;&lt;/font&gt;" style="edgeLabel;resizable=0;html=1;align=center;verticalAlign=middle;fontSize=16;" connectable="0" vertex="1" parent="UPOzVNnAeJFUdocjCnjo-29">
          <mxGeometry relative="1" as="geometry" />
        </mxCell>
        <mxCell id="UPOzVNnAeJFUdocjCnjo-31" value="" style="endArrow=classic;html=1;rounded=0;fontSize=12;startSize=8;endSize=8;curved=1;exitX=0.765;exitY=0.125;exitDx=0;exitDy=0;exitPerimeter=0;entryX=0.618;entryY=0.888;entryDx=0;entryDy=0;entryPerimeter=0;" edge="1" parent="1" source="UPOzVNnAeJFUdocjCnjo-9" target="UPOzVNnAeJFUdocjCnjo-8">
          <mxGeometry relative="1" as="geometry">
            <mxPoint x="410" y="510" as="sourcePoint" />
            <mxPoint x="510" y="510" as="targetPoint" />
          </mxGeometry>
        </mxCell>
        <mxCell id="UPOzVNnAeJFUdocjCnjo-32" value="&lt;font style=&quot;font-size: 10px;&quot;&gt;&amp;lt;&amp;lt;include&amp;gt;&amp;gt;&lt;/font&gt;" style="edgeLabel;resizable=0;html=1;align=center;verticalAlign=middle;fontSize=16;" connectable="0" vertex="1" parent="UPOzVNnAeJFUdocjCnjo-31">
          <mxGeometry relative="1" as="geometry" />
        </mxCell>
        <mxCell id="UPOzVNnAeJFUdocjCnjo-33" value="System" style="text;strokeColor=none;fillColor=none;html=1;align=center;verticalAlign=middle;whiteSpace=wrap;rounded=0;fontSize=16;" vertex="1" parent="1">
          <mxGeometry x="455" y="776" width="60" height="30" as="geometry" />
        </mxCell>
      </root>
    </mxGraphModel>
  </diagram>
</mxfile>
